<svg width="1280" height="720" xmlns="http://www.w3.org/2000/svg" xmlns:xlink="http://www.w3.org/1999/xlink" overflow="hidden"><defs><clipPath id="clip0"><rect x="0" y="0" width="1280" height="720"/></clipPath><clipPath id="clip1"><rect x="482" y="266" width="239" height="157"/></clipPath><clipPath id="clip2"><rect x="482" y="266" width="239" height="157"/></clipPath><clipPath id="clip3"><rect x="482" y="169" width="239" height="254"/></clipPath></defs><g clip-path="url(#clip0)"><rect x="0" y="0" width="1280" height="720" fill="#FFFFFF"/><path d="M434.5 345.5C434.5 252.716 509.716 177.5 602.5 177.5 695.284 177.5 770.5 252.716 770.5 345.5 770.5 438.284 695.284 513.5 602.5 513.5 509.716 513.5 434.5 438.284 434.5 345.5Z" stroke="#FFFFFF" stroke-width="1.33333" stroke-miterlimit="8" fill="#BFBFBF" fill-rule="evenodd"/><path d="M443 344.5C443 256.963 513.963 186 601.5 186 689.037 186 760 256.963 760 344.5 760 432.037 689.037 503 601.5 503 513.963 503 443 432.037 443 344.5Z" fill="#FFFFFF" fill-rule="evenodd"/><g clip-path="url(#clip1)"><g clip-path="url(#clip2)"><g clip-path="url(#clip3)"><path d="M50.9463 159.266C63.2698 159.266 73.2582 149.277 73.2582 136.956 73.2582 124.633 63.2698 114.642 50.9463 114.642 38.625 114.642 28.6355 124.633 28.6355 136.956 28.6355 149.277 38.625 159.266 50.9463 159.266Z" fill="#CAA736" transform="matrix(1.00053 0 0 1 482 169.962)"/><path d="M99.124 130.628 188.304 130.628C201.388 130.628 209.095 139.049 209.095 150.324L209.095 182.605 99.12 182.605 99.12 130.628Z" fill="#CAA736" transform="matrix(1.00053 0 0 1 482 169.962)"/><path d="M74.8468 142.181 74.8468 161.543 40.5578 161.543C24.0038 161.602 23.977 182.881 40.5578 182.881L85.5104 182.881C92.0749 182.881 96.1848 177.583 96.1848 171.589L96.1848 142.181C96.1848 126.072 74.8468 126.072 74.8468 142.181Z" fill="#CAA736" transform="matrix(1.00053 0 0 1 482 169.962)"/><path d="M24.3754 112.03C24.3754 94.4609 0 94.4609 0 112.03L0 252.916 24.9171 252.916 24.9171 216.532 214.5 216.532 214.5 252.643 238.874 252.643 238.874 143.826C238.874 125.284 214.229 125.284 214.229 143.826L214.229 187.259 24.3783 187.259 24.3783 112.03Z" fill="#CAA736" transform="matrix(1.00053 0 0 1 482 169.962)"/></g></g></g><path d="M0 43 37.5 0 75 43Z" fill="#BFBFBF" fill-rule="evenodd" transform="matrix(1 0 0 -1 564 548)"/></g></svg>